<svg width="211" height="79" viewBox="0 0 211 79" fill="none" xmlns="http://www.w3.org/2000/svg">
<g filter="url(#filter0_d_126_480)">
<rect x="15.6794" y="11" width="180.321" height="48.7156" rx="15" fill="white"/>
<path d="M77.0506 29.1252H78.3816C79.2983 29.1252 79.9913 28.8429 80.4606 28.2782C80.93 27.7062 81.1646 26.9949 81.1646 26.1442C81.1646 25.3376 80.9006 24.6592 80.3726 24.1092C79.852 23.5592 79.1736 23.2842 78.3376 23.2842H77.0506V29.1252ZM76.1486 22.4922H78.3486C79.4413 22.4922 80.336 22.8332 81.0326 23.5152C81.7366 24.1899 82.0886 25.0662 82.0886 26.1442C82.0886 27.2149 81.7623 28.1096 81.1096 28.8282C80.4643 29.5469 79.5586 29.9062 78.3926 29.9062H76.1486V22.4922ZM85.6431 30.0053C84.8438 30.0053 84.2094 29.7376 83.7401 29.2022C83.2781 28.6596 83.0471 27.9776 83.0471 27.1562C83.0471 26.3276 83.2854 25.6382 83.7621 25.0882C84.2461 24.5309 84.8731 24.2523 85.6431 24.2523C86.4864 24.2523 87.1354 24.5236 87.5901 25.0662C88.0521 25.6089 88.2831 26.2982 88.2831 27.1342C88.2831 27.9629 88.0484 28.6486 87.5791 29.1912C87.1098 29.7339 86.4644 30.0053 85.6431 30.0053ZM85.6431 25.0222C85.1151 25.0222 84.7008 25.2276 84.4001 25.6382C84.0994 26.0489 83.9491 26.5512 83.9491 27.1452C83.9491 27.7246 84.1031 28.2196 84.4111 28.6302C84.7191 29.0336 85.1298 29.2352 85.6431 29.2352C86.2004 29.2352 86.6294 29.0372 86.9301 28.6412C87.2308 28.2379 87.3811 27.7392 87.3811 27.1452C87.3811 26.5292 87.2381 26.0232 86.9521 25.6272C86.6661 25.2239 86.2298 25.0222 85.6431 25.0222ZM90.7419 29.9062L89.0259 24.3292H89.9499L90.4889 26.1772C90.6795 26.8226 90.8372 27.3872 90.9619 27.8712C91.0939 28.3479 91.1782 28.6669 91.2149 28.8282L91.2699 29.0592C91.3799 28.5899 91.6475 27.6256 92.0729 26.1662L92.6009 24.3292H93.5249L94.0639 26.1662L94.8889 29.0702C94.9915 28.6376 95.2739 27.6696 95.7359 26.1662L96.2969 24.3292H97.1879L95.4279 29.9062H94.3609L93.8329 28.0802L93.0629 25.2972C92.9529 25.7666 92.7035 26.6942 92.3149 28.0802L91.8089 29.9062H90.7419ZM99.1238 24.3292V25.2972C99.4538 24.6006 100.04 24.2523 100.884 24.2523C101.426 24.2523 101.859 24.4172 102.182 24.7472C102.504 25.0772 102.666 25.5172 102.666 26.0672V29.9062H101.797V26.2982C101.797 25.8876 101.69 25.5759 101.478 25.3632C101.272 25.1432 101.001 25.0332 100.664 25.0332C100.246 25.0332 99.8828 25.1946 99.5748 25.5172C99.2741 25.8399 99.1238 26.2872 99.1238 26.8592V29.9062H98.2658V24.3292H99.1238ZM104.25 29.9062V22.1292H105.119V29.9062H104.25ZM109.04 30.0053C108.24 30.0053 107.606 29.7376 107.137 29.2022C106.675 28.6596 106.444 27.9776 106.444 27.1562C106.444 26.3276 106.682 25.6382 107.159 25.0882C107.643 24.5309 108.27 24.2523 109.04 24.2523C109.883 24.2523 110.532 24.5236 110.987 25.0662C111.449 25.6089 111.68 26.2982 111.68 27.1342C111.68 27.9629 111.445 28.6486 110.976 29.1912C110.506 29.7339 109.861 30.0053 109.04 30.0053ZM109.04 25.0222C108.512 25.0222 108.097 25.2276 107.797 25.6382C107.496 26.0489 107.346 26.5512 107.346 27.1452C107.346 27.7246 107.5 28.2196 107.808 28.6302C108.116 29.0336 108.526 29.2352 109.04 29.2352C109.597 29.2352 110.026 29.0372 110.327 28.6412C110.627 28.2379 110.778 27.7392 110.778 27.1452C110.778 26.5292 110.635 26.0232 110.349 25.6272C110.063 25.2239 109.626 25.0222 109.04 25.0222ZM115.953 27.3322H114.985C114.516 27.3322 114.164 27.4239 113.929 27.6072C113.695 27.7906 113.577 28.0216 113.577 28.3002C113.577 28.5789 113.669 28.8062 113.852 28.9822C114.036 29.1509 114.303 29.2352 114.655 29.2352C115.051 29.2352 115.367 29.1252 115.601 28.9052C115.836 28.6779 115.953 28.3919 115.953 28.0472V27.3322ZM113.071 25.4952V24.6262C113.489 24.3696 114.039 24.2412 114.721 24.2412C116.122 24.2412 116.822 24.9526 116.822 26.3752V29.9062H115.964V29.2462C115.678 29.7229 115.158 29.9613 114.402 29.9613C113.882 29.9613 113.46 29.8073 113.137 29.4992C112.822 29.1912 112.664 28.8026 112.664 28.3332C112.664 27.7979 112.866 27.3836 113.269 27.0902C113.68 26.7896 114.237 26.6392 114.941 26.6392H115.953V26.3532C115.953 25.9132 115.854 25.5832 115.656 25.3632C115.458 25.1359 115.125 25.0222 114.655 25.0222C114.061 25.0222 113.533 25.1799 113.071 25.4952ZM120.487 29.2022C120.942 29.2022 121.327 29.0336 121.642 28.6962C121.965 28.3589 122.126 27.8199 122.126 27.0793C122.126 26.3752 121.961 25.8582 121.631 25.5282C121.301 25.1982 120.938 25.0332 120.542 25.0332C120.08 25.0332 119.695 25.2202 119.387 25.5942C119.087 25.9609 118.936 26.4889 118.936 27.1782C118.936 27.7796 119.083 28.2672 119.376 28.6412C119.67 29.0152 120.04 29.2022 120.487 29.2022ZM122.126 22.1292H122.995V29.9062H122.126V29.0812C121.73 29.6899 121.158 29.9943 120.41 29.9943C119.67 29.9943 119.087 29.7192 118.661 29.1692C118.243 28.6192 118.034 27.9519 118.034 27.1672C118.034 26.2946 118.258 25.5906 118.705 25.0552C119.153 24.5126 119.728 24.2412 120.432 24.2412C121.158 24.2412 121.723 24.5529 122.126 25.1762V22.1292ZM129.557 30.0053C128.758 30.0053 128.123 29.7376 127.654 29.2022C127.192 28.6596 126.961 27.9776 126.961 27.1562C126.961 26.3276 127.199 25.6382 127.676 25.0882C128.16 24.5309 128.787 24.2523 129.557 24.2523C130.4 24.2523 131.049 24.5236 131.504 25.0662C131.966 25.6089 132.197 26.2982 132.197 27.1342C132.197 27.9629 131.962 28.6486 131.493 29.1912C131.024 29.7339 130.378 30.0053 129.557 30.0053ZM129.557 25.0222C129.029 25.0222 128.615 25.2276 128.314 25.6382C128.013 26.0489 127.863 26.5512 127.863 27.1452C127.863 27.7246 128.017 28.2196 128.325 28.6302C128.633 29.0336 129.044 29.2352 129.557 29.2352C130.114 29.2352 130.543 29.0372 130.844 28.6412C131.145 28.2379 131.295 27.7392 131.295 27.1452C131.295 26.5292 131.152 26.0232 130.866 25.6272C130.58 25.2239 130.144 25.0222 129.557 25.0222ZM134.326 24.3292V25.2972C134.656 24.6006 135.243 24.2523 136.086 24.2523C136.629 24.2523 137.061 24.4172 137.384 24.7472C137.707 25.0772 137.868 25.5172 137.868 26.0672V29.9062H136.999V26.2982C136.999 25.8876 136.893 25.5759 136.68 25.3632C136.475 25.1432 136.203 25.0332 135.866 25.0332C135.448 25.0332 135.085 25.1946 134.777 25.5172C134.476 25.8399 134.326 26.2872 134.326 26.8592V29.9062H133.468V24.3292H134.326ZM143.293 25.0332V28.3002C143.293 28.8942 143.572 29.1912 144.129 29.1912C144.415 29.1912 144.668 29.1069 144.888 28.9382V29.7632C144.646 29.8953 144.375 29.9613 144.074 29.9613C142.974 29.9613 142.424 29.4002 142.424 28.2782V25.0332H141.533V24.3292H142.424V22.9432H143.293V24.3292H144.833V25.0332H143.293ZM147.012 22.1292V25.2972C147.342 24.6006 147.929 24.2523 148.772 24.2523C149.308 24.2523 149.737 24.4172 150.059 24.7472C150.389 25.0772 150.554 25.5246 150.554 26.0892V29.9062H149.685V26.2982C149.685 25.8949 149.579 25.5832 149.366 25.3632C149.161 25.1432 148.89 25.0332 148.552 25.0332C148.142 25.0332 147.782 25.1909 147.474 25.5062C147.166 25.8216 147.012 26.2726 147.012 26.8592V29.9062H146.154V22.1292H147.012ZM155.648 26.7602V26.5402C155.648 26.0782 155.523 25.7116 155.274 25.4402C155.025 25.1616 154.68 25.0222 154.24 25.0222C153.822 25.0222 153.466 25.1726 153.173 25.4732C152.88 25.7739 152.707 26.2029 152.656 26.7602H155.648ZM156.165 28.8062V29.6202C155.732 29.8476 155.204 29.9613 154.581 29.9613C153.738 29.9613 153.056 29.7046 152.535 29.1912C152.022 28.6706 151.765 27.9849 151.765 27.1342C151.765 26.2469 151.996 25.5466 152.458 25.0332C152.92 24.5199 153.514 24.2632 154.24 24.2632C154.937 24.2632 155.49 24.4869 155.901 24.9342C156.312 25.3816 156.517 26.0159 156.517 26.8372C156.517 27.0719 156.499 27.2882 156.462 27.4862H152.656C152.722 28.0362 152.931 28.4579 153.283 28.7512C153.635 29.0446 154.097 29.1912 154.669 29.1912C155.292 29.1912 155.791 29.0629 156.165 28.8062Z" fill="#056000"/>
<path d="M80.1216 41.9659H83.9216L83.7416 41.3659C83.2883 39.9259 82.915 38.7193 82.6216 37.7459C82.3416 36.7593 82.1683 36.1393 82.1016 35.8859L82.0216 35.4859C81.9016 36.1526 81.3283 38.1193 80.3016 41.3859L80.1216 41.9659ZM85.5216 47.0859L84.5616 44.0259H79.4616L78.5016 47.0859H75.8616L80.4216 33.6059H83.6816L88.2416 47.0859H85.5216ZM94.9982 45.1659C95.7182 45.1659 96.3049 44.8926 96.7582 44.3459C97.2115 43.7859 97.4382 43.0059 97.4382 42.0059C97.4382 41.0059 97.2115 40.2326 96.7582 39.6859C96.3049 39.1259 95.7315 38.8459 95.0382 38.8459C94.3449 38.8459 93.7449 39.1059 93.2382 39.6259C92.7315 40.1459 92.4782 40.9193 92.4782 41.9459C92.4782 42.9726 92.7249 43.7659 93.2182 44.3259C93.7115 44.8859 94.3049 45.1659 94.9982 45.1659ZM92.4782 36.9459V38.5059C93.1982 37.3726 94.2315 36.8059 95.5782 36.8059C96.8982 36.8059 97.9449 37.2793 98.7182 38.2259C99.5049 39.1726 99.8982 40.4193 99.8982 41.9659C99.8982 43.4859 99.5049 44.7459 98.7182 45.7459C97.9449 46.7326 96.8915 47.2259 95.5582 47.2259C94.1982 47.2259 93.1715 46.6726 92.4782 45.5659V50.9059H90.0782V36.9459H92.4782ZM106.873 45.1659C107.593 45.1659 108.18 44.8926 108.633 44.3459C109.087 43.7859 109.313 43.0059 109.313 42.0059C109.313 41.0059 109.087 40.2326 108.633 39.6859C108.18 39.1259 107.607 38.8459 106.913 38.8459C106.22 38.8459 105.62 39.1059 105.113 39.6259C104.607 40.1459 104.353 40.9193 104.353 41.9459C104.353 42.9726 104.6 43.7659 105.093 44.3259C105.587 44.8859 106.18 45.1659 106.873 45.1659ZM104.353 36.9459V38.5059C105.073 37.3726 106.107 36.8059 107.453 36.8059C108.773 36.8059 109.82 37.2793 110.593 38.2259C111.38 39.1726 111.773 40.4193 111.773 41.9659C111.773 43.4859 111.38 44.7459 110.593 45.7459C109.82 46.7326 108.767 47.2259 107.433 47.2259C106.073 47.2259 105.047 46.6726 104.353 45.5659V50.9059H101.953V36.9459H104.353ZM126.389 34.1659V36.6059C125.389 36.0059 124.322 35.7059 123.189 35.7059C122.562 35.7059 122.069 35.8459 121.709 36.1259C121.362 36.4059 121.189 36.7659 121.189 37.2059C121.189 37.6459 121.376 38.0126 121.749 38.3059C122.136 38.5859 122.709 38.8993 123.469 39.2459C124.002 39.4859 124.436 39.6993 124.769 39.8859C125.102 40.0593 125.462 40.3059 125.849 40.6259C126.249 40.9459 126.542 41.3326 126.729 41.7859C126.929 42.2259 127.029 42.7326 127.029 43.3059C127.029 44.5059 126.596 45.4659 125.729 46.1859C124.876 46.8926 123.749 47.2459 122.349 47.2459C120.829 47.2459 119.569 46.9593 118.569 46.3859V43.8059C119.716 44.6326 120.969 45.0459 122.329 45.0459C122.942 45.0459 123.436 44.8993 123.809 44.6059C124.182 44.2993 124.369 43.8926 124.369 43.3859C124.369 43.1459 124.322 42.9326 124.229 42.7459C124.136 42.5593 123.942 42.3726 123.649 42.1859C123.369 41.9993 123.149 41.8659 122.989 41.7859C122.842 41.7059 122.529 41.5593 122.049 41.3459C121.916 41.2793 121.816 41.2326 121.749 41.2059C121.256 40.9793 120.856 40.7793 120.549 40.6059C120.242 40.4193 119.909 40.1726 119.549 39.8659C119.189 39.5593 118.916 39.1926 118.729 38.7659C118.556 38.3393 118.469 37.8526 118.469 37.3059C118.469 36.1593 118.889 35.2393 119.729 34.5459C120.582 33.8526 121.709 33.5059 123.109 33.5059C124.376 33.5059 125.469 33.7259 126.389 34.1659ZM132.061 38.7459V43.9059C132.061 44.3326 132.174 44.6593 132.401 44.8859C132.627 45.0993 132.941 45.2059 133.341 45.2059C133.847 45.2059 134.314 45.0659 134.741 44.7859V46.8459C134.274 47.0726 133.674 47.1859 132.941 47.1859C130.754 47.1859 129.661 46.0793 129.661 43.8659V38.7459H128.141V36.9459H129.661V34.5059H132.061V36.9459H134.581V38.7459H132.061ZM141.059 47.2459C139.525 47.2459 138.325 46.7659 137.459 45.8059C136.605 44.8459 136.179 43.6193 136.179 42.1259C136.179 40.5793 136.625 39.3059 137.519 38.3059C138.412 37.2926 139.592 36.7859 141.059 36.7859C142.619 36.7859 143.825 37.2793 144.679 38.2659C145.532 39.2393 145.959 40.4793 145.959 41.9859C145.959 43.5193 145.525 44.7793 144.659 45.7659C143.805 46.7526 142.605 47.2459 141.059 47.2459ZM141.059 38.7459C140.299 38.7459 139.712 39.0593 139.299 39.6859C138.899 40.3126 138.699 41.0993 138.699 42.0459C138.699 42.9793 138.905 43.7593 139.319 44.3859C139.732 45.0126 140.319 45.3259 141.079 45.3259C141.865 45.3259 142.459 45.0193 142.859 44.4059C143.259 43.7926 143.459 43.0126 143.459 42.0659C143.459 41.0926 143.265 40.2993 142.879 39.6859C142.492 39.0593 141.885 38.7459 141.059 38.7459ZM150.427 36.9459V38.7459C150.894 37.4926 151.747 36.8659 152.987 36.8659C153.267 36.8659 153.494 36.8859 153.667 36.9259V39.2459C153.361 39.1126 153.021 39.0459 152.647 39.0459C151.994 39.0459 151.461 39.3126 151.047 39.8459C150.634 40.3793 150.427 41.0459 150.427 41.8459V47.0859H148.007L148.027 36.9459H150.427ZM161.178 41.1859V40.8859C161.152 40.2326 160.972 39.7126 160.638 39.3259C160.318 38.9259 159.845 38.7259 159.218 38.7259C158.645 38.7259 158.145 38.9393 157.718 39.3659C157.305 39.7793 157.038 40.3859 156.918 41.1859H161.178ZM162.818 44.4459V46.5259C162.112 46.9659 161.092 47.1859 159.758 47.1859C158.145 47.1859 156.872 46.7059 155.938 45.7459C155.005 44.7859 154.538 43.5459 154.538 42.0259C154.538 40.4126 154.978 39.1459 155.858 38.2259C156.738 37.3059 157.838 36.8459 159.158 36.8459C160.478 36.8459 161.525 37.2459 162.298 38.0459C163.072 38.8459 163.458 40.0126 163.458 41.5459C163.458 41.9193 163.412 42.3993 163.318 42.9859H156.958C157.132 43.7193 157.492 44.2793 158.038 44.6659C158.598 45.0526 159.292 45.2459 160.118 45.2459C161.185 45.2459 162.085 44.9793 162.818 44.4459Z" fill="#056000"/>
<g clip-path="url(#clip0_126_480)">
<path d="M53.941 17.5439C54.0256 17.5439 54.1102 17.5439 54.1996 17.5439C54.4071 20.1078 53.4285 22.0235 52.2392 23.4107C51.0722 24.7884 49.4742 26.1246 46.8896 25.9219C46.7172 23.3948 47.6974 21.6212 48.8851 20.2371C49.9867 18.9472 52.0061 17.7994 53.941 17.5439Z" fill="url(#paint0_linear_126_480)"/>
<path d="M61.7649 44.2294C61.7649 44.255 61.7649 44.2773 61.7649 44.3012C61.0386 46.5011 60.0025 48.3865 58.7381 50.1361C57.5839 51.7245 56.1695 53.8621 53.644 53.8621C51.4617 53.8621 50.0122 52.4589 47.7756 52.4206C45.4097 52.3823 44.1087 53.5939 41.9455 53.8988C41.6981 53.8988 41.4506 53.8988 41.208 53.8988C39.6196 53.669 38.3377 52.411 37.4038 51.2775C34.65 47.9283 32.5219 43.602 32.126 38.0657C32.126 37.5229 32.126 36.9817 32.126 36.439C32.2937 32.4767 34.2189 29.2551 36.778 27.6938C38.1285 26.8637 39.9851 26.1565 42.0525 26.4726C42.9385 26.6099 43.8437 26.9132 44.6371 27.2133C45.389 27.5023 46.3293 28.0147 47.2201 27.9876C47.8235 27.97 48.4237 27.6555 49.032 27.4336C50.8136 26.7903 52.56 26.0527 54.8621 26.3992C57.6286 26.8174 59.5922 28.0466 60.8055 29.9432C58.4651 31.4326 56.6149 33.6772 56.931 37.5101C57.212 40.9919 59.2362 43.0289 61.7649 44.2294Z" fill="url(#paint1_linear_126_480)"/>
</g>
</g>
<defs>
<filter id="filter0_d_126_480" x="0.679443" y="0" width="210.321" height="78.7158" filterUnits="userSpaceOnUse" color-interpolation-filters="sRGB">
<feFlood flood-opacity="0" result="BackgroundImageFix"/>
<feColorMatrix in="SourceAlpha" type="matrix" values="0 0 0 0 0 0 0 0 0 0 0 0 0 0 0 0 0 0 127 0" result="hardAlpha"/>
<feOffset dy="4"/>
<feGaussianBlur stdDeviation="7.5"/>
<feComposite in2="hardAlpha" operator="out"/>
<feColorMatrix type="matrix" values="0 0 0 0 0 0 0 0 0 0 0 0 0 0 0 0 0 0 0.25 0"/>
<feBlend mode="normal" in2="BackgroundImageFix" result="effect1_dropShadow_126_480"/>
<feBlend mode="normal" in="SourceGraphic" in2="effect1_dropShadow_126_480" result="shape"/>
</filter>
<linearGradient id="paint0_linear_126_480" x1="50.5487" y1="17.5439" x2="50.5487" y2="25.9424" gradientUnits="userSpaceOnUse">
<stop stop-color="#044F00"/>
<stop offset="0.9999" stop-color="#078E00"/>
</linearGradient>
<linearGradient id="paint1_linear_126_480" x1="46.9455" y1="26.3105" x2="46.9455" y2="53.8988" gradientUnits="userSpaceOnUse">
<stop stop-color="#044F00"/>
<stop offset="0.9999" stop-color="#078E00"/>
</linearGradient>
<clipPath id="clip0_126_480">
<rect width="36.355" height="36.355" fill="white" transform="translate(28.7672 17.5439)"/>
</clipPath>
</defs>
</svg>
