<svg width="198" height="198" viewBox="0 0 198 198" fill="none" xmlns="http://www.w3.org/2000/svg">
<path d="M39.5723 160.734H34.9541V180.954H39.5723V160.734Z" fill="#38D430"/>
<path d="M37.2623 153.725C36.4685 153.725 35.7901 154 35.2475 154.541C34.7048 155.083 34.4316 155.747 34.4316 156.513C34.4316 157.28 34.7103 157.969 35.2585 158.517C35.8066 159.065 36.4813 159.344 37.2623 159.344C38.0433 159.344 38.696 159.065 39.246 158.517C39.7941 157.969 40.0728 157.294 40.0728 156.513C40.0728 155.732 39.7941 155.08 39.2423 154.539C38.6941 153.998 38.0268 153.725 37.2623 153.725Z" fill="#38D430"/>
<path d="M58.6152 165.143L60.707 160.732H54.3472C50.9977 160.732 48.299 161.671 46.3263 163.52C44.3445 165.378 43.3398 167.904 43.3398 171.03C43.3398 174.156 44.2657 176.565 46.0917 178.317C47.914 180.066 50.4513 180.952 53.6377 180.952H58.0028L60.4907 176.541H54.0135C52.0628 176.541 50.5632 176.051 49.553 175.087C48.5502 174.128 48.0405 172.707 48.0405 170.861C48.0405 169.015 48.5703 167.543 49.6172 166.591C50.6732 165.631 52.259 165.143 54.3307 165.141V164.666L54.3453 165.139H58.6133L58.6152 165.143Z" fill="white"/>
<path d="M73.1184 160.734H71.7709L69.2739 163.194V151.683H64.6558V180.955H69.2739V165.145H73.1588C74.5283 165.145 75.5256 165.532 76.2094 166.325C76.9006 167.13 77.2526 168.355 77.2526 169.968V180.954H81.8708V169.968C81.8708 167.006 81.1154 164.703 79.6249 163.124C78.1271 161.539 75.9381 160.734 73.1166 160.734H73.1184Z" fill="white"/>
<path d="M95.7069 160.734H89.5487L87.0371 165.145H95.5382C96.5887 165.145 96.9737 165.363 97.1094 165.491C97.2707 165.647 97.4632 166.025 97.4632 166.943V176.669H93.0559C91.9394 176.669 91.1126 176.447 90.5992 176.011C90.1006 175.588 89.8586 174.94 89.8586 174.037C89.8586 173.248 90.1006 172.638 90.5956 172.17C91.0924 171.703 91.7524 171.472 92.6104 171.466H93.7966L96.0369 167.16H92.8469C90.5901 167.16 88.7842 167.781 87.4752 169.01C86.1589 170.245 85.4897 171.95 85.4897 174.079C85.4897 176.207 86.1442 178.015 87.4386 179.194C88.7182 180.363 90.5809 180.956 92.9734 180.956H101.999V167.528C101.999 165.088 101.52 163.385 100.538 162.325C99.5587 161.269 97.9326 160.734 95.7051 160.734H95.7069Z" fill="white"/>
<path d="M123.578 163.495C121.544 165.339 120.512 167.875 120.512 171.032C120.512 173.989 121.469 176.409 123.359 178.226C125.244 180.037 127.765 180.955 130.852 180.955H132.484L134.972 176.544H131.144C129.138 176.544 127.638 176.077 126.685 175.155C125.735 174.238 125.255 172.795 125.255 170.865C125.255 168.934 125.792 167.6 126.9 166.621C128.007 165.642 129.651 165.145 131.789 165.145H135.674V180.69C135.674 183.242 135.26 184.298 134.911 184.732C134.431 185.333 133.478 185.638 132.079 185.638H125.745L123.035 190.047H130.453C133.936 190.047 136.457 189.367 137.945 188.027C139.447 186.674 140.21 184.365 140.21 181.168V160.732H131.872C128.386 160.732 125.596 161.661 123.576 163.493L123.578 163.495Z" fill="white"/>
<path d="M150.302 175.076C149.266 174.11 148.742 172.651 148.742 170.74C148.742 168.949 149.241 167.554 150.225 166.595C151.213 165.633 152.652 165.145 154.504 165.145H156.409L152.137 174.238H157.027L163.568 160.734H155.945C152.121 160.734 149.147 161.621 147.107 163.372C145.046 165.141 144.001 167.717 144.001 171.032C144.001 174.092 144.985 176.539 146.931 178.306C148.861 180.063 151.536 180.954 154.884 180.954H160.415L162.945 176.543H155.01C152.933 176.543 151.351 176.05 150.306 175.074L150.302 175.076Z" fill="white"/>
<path d="M119.678 163.031C119.152 162.323 118.486 161.757 117.702 161.35C116.913 160.941 116.075 160.734 115.21 160.734H107.604V180.954H112.222V165.31H114.959C115.364 165.319 116.73 165.455 117.276 166.778L117.681 167.757L119.85 163.26L119.678 163.031Z" fill="white"/>
<path d="M133.875 7.95288H64.1243C47.793 7.95288 34.4316 21.3142 34.4316 37.6455V107.397C34.4316 123.728 47.793 137.089 64.1243 137.089H133.875C150.207 137.089 163.568 123.728 163.568 107.397V37.6455C163.568 21.3142 150.207 7.95288 133.875 7.95288Z" fill="#35D32F"/>
<path d="M98.9999 23.5106C74.9466 23.5106 55.3794 43.0796 55.3794 67.1311C55.3794 77.3886 59.0112 87.3565 65.6057 95.1958C67.6884 97.6726 71.3844 97.9916 73.8631 95.909C76.3399 93.8263 76.6589 90.1284 74.5762 87.6516C69.7564 81.9206 67.1017 74.6331 67.1017 67.1311C67.1017 49.5403 81.4127 35.2293 99.0017 35.2293C116.591 35.2293 130.904 49.5403 130.904 67.1311C130.904 74.6331 128.249 81.9206 123.429 87.6516C121.346 90.1284 121.665 93.8245 124.14 95.909C125.24 96.833 126.579 97.284 127.91 97.284C129.58 97.284 131.239 96.5745 132.398 95.1958C138.992 87.3565 142.624 77.3886 142.624 67.1293C142.624 43.076 123.055 23.5088 99.0036 23.5088L98.9999 23.5106Z" fill="white"/>
<path d="M113.197 70.3944C113.542 69.7858 113.888 69.1771 114.235 68.5703C115.309 66.6856 116.418 64.7386 117.48 62.7989C117.482 62.7953 117.484 62.7916 117.485 62.7879C117.491 62.7788 117.496 62.7696 117.502 62.7604C120.213 57.9901 115.997 58.0029 115.997 58.0029H100.14C100.126 58.0048 100.113 58.0029 100.098 58.0029C97.205 58.0029 95.6742 60.9913 95.6742 60.9913L95.61 61.1233C95.5862 61.1691 95.5605 61.2149 95.5367 61.2608C92.3064 68.0166 89.0009 74.8733 85.8035 81.5063C84.6925 83.8108 83.5815 86.1171 82.4705 88.4216C82.278 88.8213 82.0837 89.2191 81.8894 89.6169C81.398 90.6198 80.892 91.6556 80.4282 92.7043C79.9497 93.7878 79.9644 94.8731 80.4685 95.7586C80.9819 96.6588 81.9279 97.2326 83.1324 97.3774C83.3542 97.4031 83.5559 97.4068 83.7355 97.4068H83.7979L88.2455 97.4599C90.2934 97.4838 92.343 97.5076 94.3909 97.5314L92.3467 102.65C91.397 105.026 90.4474 107.404 89.4995 109.782L88.9074 111.267C88.0145 113.5 87.0924 115.81 86.2032 118.09C85.7192 119.332 86.0749 120.584 87.0869 121.203C87.4297 121.414 87.8239 121.524 88.2235 121.524C88.9294 121.524 89.6205 121.196 90.22 120.578C90.3282 120.466 90.4162 120.355 90.4877 120.265L90.5244 120.219L90.858 119.803C91.331 119.211 91.8059 118.62 92.277 118.028L96.336 112.933C102.245 105.517 108.154 98.1016 114.061 90.6858C114.295 90.3906 114.532 90.0954 114.77 89.8003C115.584 88.7846 116.426 87.7359 117.218 86.6616C117.907 85.7266 118.067 84.6486 117.654 83.7008C117.242 82.7548 116.303 82.1113 115.142 81.9793C114.834 81.9444 114.508 81.9279 114.116 81.9279C112.479 81.9279 110.84 81.9261 109.202 81.9261H107.27H106.647L110.563 75.0254L113.194 70.3908L113.197 70.3944Z" fill="white"/>
</svg>
