<svg width="174" height="47" viewBox="0 0 174 47" fill="none" xmlns="http://www.w3.org/2000/svg">
<path d="M20.7525 0.00172088C9.30947 0.00172088 0 9.3112 0 20.7542C0 25.635 1.7278 30.3766 4.86534 34.1055C5.85732 35.2832 7.61434 35.4362 8.79371 34.4442C9.97137 33.4522 10.1244 31.6952 9.1324 30.5158C6.83898 27.7892 5.57537 24.3215 5.57537 20.7525C5.57537 12.3834 12.3834 5.57537 20.7525 5.57537C29.1215 5.57537 35.9296 12.3834 35.9296 20.7525C35.9296 24.3215 34.666 27.7892 32.3726 30.5158C31.3806 31.6935 31.5336 33.4522 32.7112 34.4442C33.2339 34.8843 33.8717 35.0992 34.5044 35.0992C35.2986 35.0992 36.0877 34.7605 36.6396 34.1055C39.7772 30.3748 41.505 25.6333 41.505 20.7525C41.505 9.30948 32.1955 0 20.7525 0V0.00172088Z" fill="#38D430"/>
<path d="M27.5073 22.3065C27.6724 22.0177 27.8374 21.7271 28.0007 21.4383C28.5113 20.5426 29.0391 19.6142 29.5446 18.6927C29.5446 18.6927 29.5446 18.6893 29.5463 18.6876C29.548 18.6824 29.5514 18.679 29.5532 18.6756C30.8443 16.4062 28.838 16.4131 28.838 16.4131H21.2941C21.2941 16.4131 21.2821 16.4131 21.2735 16.4131C19.8981 16.4131 19.1692 17.8349 19.1692 17.8349L19.1382 17.8985C19.1262 17.9208 19.1142 17.9415 19.1039 17.9638C17.5669 21.177 15.9938 24.44 14.4723 27.5965C13.9428 28.6933 13.415 29.7902 12.8872 30.887C12.7961 31.0762 12.7033 31.2653 12.6104 31.4561C12.3766 31.9323 12.1359 32.4257 11.9159 32.9243C11.6889 33.4401 11.6958 33.9558 11.9348 34.377C12.1789 34.8051 12.6293 35.0785 13.2018 35.1472C13.3067 35.1593 13.403 35.161 13.4889 35.161H13.5182L15.6345 35.1868C16.6093 35.1988 17.5841 35.2091 18.5589 35.2211L17.5858 37.6572C17.1337 38.7885 16.6815 39.918 16.2311 41.0492L15.9491 41.7558C15.5245 42.8183 15.0861 43.9169 14.6632 45.0017C14.4328 45.5931 14.6013 46.1879 15.0826 46.4836C15.246 46.5833 15.4334 46.6366 15.6242 46.6366C15.9594 46.6366 16.2878 46.4802 16.5749 46.1862C16.6265 46.1329 16.6695 46.0796 16.7021 46.0366L16.7193 46.0143L16.8775 45.8166C17.1027 45.5346 17.3279 45.2544 17.5531 44.9725L19.4838 42.5484C22.2947 39.0206 25.1056 35.4928 27.9165 31.9633C28.0282 31.8223 28.1417 31.683 28.2534 31.5421C28.6403 31.059 29.0408 30.5604 29.4173 30.0481C29.7457 29.6028 29.8214 29.0905 29.6254 28.64C29.4294 28.1896 28.9824 27.8836 28.4305 27.8217C28.2844 27.8045 28.1279 27.7976 27.9423 27.7976C27.1635 27.7976 26.3847 27.7976 25.6042 27.7976H24.6844H24.3887L26.2523 24.514L27.5039 22.3082L27.5073 22.3065Z" fill="#38D430"/>
<path d="M58.4891 16.4028H54.2065V35.1507H58.4891V16.4028Z" fill="#38D430"/>
<path d="M56.3486 9.90625C55.6128 9.90625 54.9836 10.1607 54.4816 10.6627C53.9795 11.1647 53.7251 11.7802 53.7251 12.4919C53.7251 13.2037 53.983 13.8415 54.4919 14.3487C55.0007 14.8575 55.6248 15.1154 56.3486 15.1154C57.0724 15.1154 57.6775 14.8575 58.1864 14.3487C58.6953 13.8398 58.9532 13.2157 58.9532 12.4919C58.9532 11.7681 58.6936 11.163 58.183 10.661C57.6741 10.1607 57.0569 9.90625 56.3469 9.90625H56.3486Z" fill="#38D430"/>
<path d="M76.1435 20.493L78.0827 16.4048H72.1859C69.081 16.4048 66.5778 17.2747 64.7503 18.9887C62.9125 20.7114 61.9824 23.0529 61.9824 25.9515C61.9824 28.8501 62.8403 31.0833 64.5337 32.708C66.222 34.3292 68.5756 35.151 71.5291 35.151H75.5761L77.8816 31.0627H71.8764C70.0678 31.0627 68.677 30.6088 67.7417 29.7148C66.8117 28.826 66.3406 27.5074 66.3406 25.7968C66.3406 24.0862 66.8323 22.7211 67.8019 21.8375C68.7801 20.9469 70.2518 20.4948 72.1721 20.4913V20.0512L72.1859 20.4896H76.1435V20.493Z" fill="white"/>
<path d="M89.5911 16.4029H88.3412L86.0272 18.6826V8.00977H81.7446V35.1508H86.0272V20.4929H89.6289C90.8994 20.4929 91.8243 20.8505 92.457 21.588C93.0982 22.3342 93.4232 23.4705 93.4232 24.9663V35.1525H97.7057V24.9663C97.7057 22.2207 97.0043 20.0854 95.6237 18.6207C94.2346 17.1508 92.2042 16.4046 89.5893 16.4046L89.5911 16.4029Z" fill="white"/>
<path d="M110.534 16.4029H104.825L102.497 20.4911H110.38C111.354 20.4911 111.71 20.6923 111.836 20.8126C111.985 20.957 112.164 21.3077 112.164 22.1587V31.176H108.078C107.043 31.176 106.276 30.9696 105.8 30.5656C105.337 30.1719 105.114 29.5737 105.114 28.7347C105.114 28.004 105.337 27.4367 105.798 27.0034C106.259 26.5702 106.871 26.3553 107.665 26.3502H108.765L110.844 22.3564H107.885C105.793 22.3564 104.118 22.9324 102.904 24.0705C101.684 25.2155 101.065 26.7971 101.065 28.7708C101.065 30.7444 101.672 32.4206 102.87 33.5141C104.056 34.5972 105.782 35.1473 108 35.1473H116.368V22.6986C116.368 20.4361 115.924 18.8579 115.013 17.8745C114.105 16.8963 112.597 16.3994 110.533 16.3994L110.534 16.4029Z" fill="white"/>
<path d="M136.374 18.9644C134.488 20.675 133.532 23.0252 133.532 25.9513C133.532 28.6934 134.419 30.9369 136.171 32.62C137.918 34.2997 140.254 35.1507 143.118 35.1507H144.631L146.937 31.0624H143.388C141.53 31.0624 140.139 30.6292 139.255 29.7748C138.375 28.9255 137.93 27.5862 137.93 25.7982C137.93 24.0103 138.429 22.7707 139.455 21.863C140.481 20.9553 142.006 20.4945 143.988 20.4945H147.59V34.9066C147.59 37.2722 147.205 38.2504 146.884 38.6544C146.438 39.2115 145.555 39.4951 144.258 39.4951H138.386L135.874 43.5834H142.751C145.981 43.5834 148.317 42.9542 149.696 41.7112C151.089 40.4562 151.795 38.3158 151.795 35.3518V16.4062H144.066C140.835 16.4062 138.248 17.2676 136.374 18.9661V18.9644Z" fill="white"/>
<path d="M161.151 29.7009C160.192 28.8052 159.705 27.4521 159.705 25.6796C159.705 24.0189 160.168 22.7261 161.081 21.8372C161.997 20.945 163.331 20.4928 165.049 20.4928H166.814L162.853 28.9238H167.387L173.45 16.4028H166.383C162.836 16.4028 160.078 17.2263 158.187 18.8493C156.276 20.4894 155.308 22.8791 155.308 25.9513C155.308 28.788 156.221 31.0573 158.024 32.6974C159.814 34.3255 162.294 35.1524 165.398 35.1524H170.526L172.871 31.0642H165.515C163.589 31.0642 162.123 30.6069 161.153 29.7026L161.151 29.7009Z" fill="white"/>
<path d="M132.758 18.5349C132.27 17.8781 131.653 17.3538 130.926 16.9756C130.195 16.5956 129.418 16.4048 128.615 16.4048H121.563V35.1527H125.846V20.6495H128.383C128.76 20.6581 130.025 20.7836 130.532 22.0111L130.907 22.9188L132.918 18.7498L132.76 18.5366L132.758 18.5349Z" fill="white"/>
</svg>
