<svg width="1440" height="3735" viewBox="0 0 1440 3735" fill="none" xmlns="http://www.w3.org/2000/svg">
<g clip-path="url(#clip0_2042_230)">
<path opacity="0.25" d="M887.5 -140.895C988 -143.044 1189.86 -114.015 1066.66 109.038C912.647 387.855 1458.28 605.84 1370.27 387.856C1282.27 169.872 613.432 418.272 1154.66 788.338C1587.64 1084.39 736.638 1161.78 257.013 1163.47C89.1493 1174.46 -168.491 1284.66 143.856 1637.56C534.29 2078.69 1240.71 2266.29 1197.68 2535.02C1154.66 2803.76 -389.358 3972.56 143.856 3972.56C1317 3972.56 248.144 4648.44 709 4877.75C849.545 4947.69 1443.95 4829.29 1413 5273.06C1355.34 6099.87 -63.8002 5707.32 92.9998 6161.06C289 6728.24 1413 6940.21 1443 7135" stroke="#2BB32A" stroke-width="1.5" stroke-linecap="square"/>
<path d="M1354.99 456.029C1355.55 455.245 1356.79 455.635 1356.8 456.6L1356.94 467.708C1356.95 468.026 1357.1 468.323 1357.36 468.508L1366.38 474.99C1367.16 475.553 1366.77 476.79 1365.81 476.802L1354.7 476.941C1354.38 476.945 1354.09 477.099 1353.9 477.357L1347.42 486.38C1346.86 487.164 1345.62 486.774 1345.61 485.809L1345.47 474.7C1345.46 474.383 1345.31 474.086 1345.05 473.901L1336.03 467.419C1335.25 466.856 1335.64 465.619 1336.6 465.607L1347.71 465.468C1348.03 465.464 1348.32 465.309 1348.51 465.051L1354.99 456.029Z" fill="#2BB32A"/>
<path d="M141.748 798.21C141.424 797.3 142.448 796.505 143.249 797.045L149.854 801.497C150.117 801.675 150.449 801.717 150.748 801.61L158.252 798.937C159.161 798.613 159.956 799.638 159.417 800.438L154.964 807.043C154.787 807.307 154.745 807.639 154.852 807.938L157.525 815.441C157.848 816.351 156.824 817.146 156.024 816.606L149.418 812.154C149.155 811.976 148.823 811.934 148.524 812.041L141.02 814.714C140.111 815.038 139.316 814.013 139.855 813.213L144.308 806.608C144.485 806.344 144.527 806.012 144.421 805.713L141.748 798.21Z" fill="#2BB32A"/>
<path d="M234.542 1696.82C235.059 1696 236.316 1696.32 236.383 1697.28L237.538 1713.86C237.56 1714.18 237.732 1714.46 238 1714.63L252.024 1723.54C252.839 1724.06 252.52 1725.32 251.558 1725.38L234.983 1726.54C234.667 1726.56 234.379 1726.73 234.209 1727L225.301 1741.02C224.783 1741.84 223.526 1741.52 223.459 1740.56L222.304 1723.98C222.282 1723.67 222.11 1723.38 221.842 1723.21L207.818 1714.3C207.003 1713.78 207.322 1712.53 208.284 1712.46L224.859 1711.3C225.176 1711.28 225.463 1711.11 225.633 1710.84L234.542 1696.82Z" fill="#2BB32A"/>
<path d="M1190.17 2411.54C1191.14 2411.52 1191.57 2412.74 1190.81 2413.33L1180.01 2421.7C1179.76 2421.89 1179.61 2422.2 1179.62 2422.51L1179.94 2436.17C1179.96 2437.14 1178.74 2437.57 1178.15 2436.81L1169.78 2426.01C1169.59 2425.75 1169.29 2425.61 1168.97 2425.62L1155.31 2425.94C1154.35 2425.96 1153.91 2424.74 1154.67 2424.15L1165.48 2415.78C1165.73 2415.59 1165.87 2415.29 1165.86 2414.97L1165.54 2401.31C1165.52 2400.35 1166.74 2399.91 1167.33 2400.67L1175.7 2411.48C1175.89 2411.73 1176.2 2411.87 1176.51 2411.86L1190.17 2411.54Z" fill="#2BB32A"/>
<path d="M191.878 2937.75C192.843 2937.73 193.277 2938.95 192.514 2939.55L188.85 2942.38C188.599 2942.58 188.455 2942.88 188.463 2943.2L188.572 2947.83C188.594 2948.8 187.372 2949.23 186.781 2948.47L183.943 2944.8C183.749 2944.55 183.447 2944.41 183.129 2944.42L178.496 2944.52C177.531 2944.55 177.097 2943.32 177.86 2942.73L181.524 2939.9C181.775 2939.7 181.919 2939.4 181.911 2939.08L181.802 2934.45C181.78 2933.48 183.002 2933.05 183.593 2933.81L186.431 2937.48C186.625 2937.73 186.927 2937.87 187.245 2937.86L191.878 2937.75Z" fill="#2BB32A"/>
<path d="M317.697 3499.07C318.662 3499.04 319.096 3500.27 318.333 3500.86L308.512 3508.46C308.261 3508.66 308.117 3508.96 308.124 3509.28L308.417 3521.7C308.439 3522.66 307.217 3523.1 306.626 3522.33L299.02 3512.51C298.825 3512.26 298.523 3512.12 298.205 3512.12L285.786 3512.42C284.821 3512.44 284.387 3511.22 285.15 3510.63L294.972 3503.02C295.223 3502.83 295.366 3502.52 295.359 3502.21L295.067 3489.79C295.044 3488.82 296.266 3488.39 296.857 3489.15L304.464 3498.97C304.658 3499.22 304.96 3499.37 305.278 3499.36L317.697 3499.07Z" fill="#2BB32A"/>
<path d="M505.57 2339.33C506.535 2339.31 506.969 2340.53 506.206 2341.12L501.218 2344.99C500.967 2345.18 500.823 2345.48 500.831 2345.8L500.979 2352.11C501.002 2353.07 499.78 2353.51 499.189 2352.74L495.325 2347.76C495.131 2347.5 494.829 2347.36 494.511 2347.37L488.204 2347.52C487.239 2347.54 486.805 2346.32 487.568 2345.73L492.556 2341.86C492.807 2341.67 492.951 2341.37 492.943 2341.05L492.795 2334.74C492.772 2333.78 493.994 2333.34 494.585 2334.1L498.449 2339.09C498.643 2339.34 498.945 2339.49 499.263 2339.48L505.57 2339.33Z" fill="#2BB32A"/>
<path d="M937.162 1343.66C937.804 1342.94 938.993 1343.45 938.904 1344.41L938.168 1352.35C938.139 1352.66 938.261 1352.97 938.498 1353.18L944.445 1358.49C945.165 1359.13 944.648 1360.32 943.687 1360.23L935.755 1359.49C935.439 1359.46 935.128 1359.58 934.916 1359.82L929.616 1365.77C928.974 1366.49 927.785 1365.97 927.874 1365.01L928.61 1357.08C928.639 1356.76 928.517 1356.45 928.28 1356.24L922.333 1350.94C921.613 1350.3 922.13 1349.11 923.091 1349.2L931.023 1349.93C931.339 1349.96 931.65 1349.84 931.861 1349.6L937.162 1343.66Z" fill="#2BB32A"/>
<path d="M376.501 370.097C376.177 369.188 377.202 368.393 378.002 368.932L391.383 377.952C391.646 378.129 391.978 378.171 392.277 378.065L407.478 372.65C408.387 372.326 409.182 373.351 408.643 374.151L399.623 387.531C399.446 387.795 399.404 388.127 399.51 388.426L404.925 403.627C405.249 404.536 404.224 405.331 403.424 404.791L390.044 395.772C389.78 395.594 389.448 395.552 389.149 395.659L373.948 401.074C373.039 401.398 372.244 400.373 372.783 399.573L381.803 386.192C381.981 385.929 382.022 385.597 381.916 385.298L376.501 370.097Z" fill="#2BB32A"/>
<g filter="url(#filter0_f_2042_230)">
<circle cx="1328" cy="705" r="246" fill="#2BB32A" fill-opacity="0.5"/>
</g>
<g filter="url(#filter1_f_2042_230)">
<circle cx="193" cy="1811" r="246" fill="#2BB32A" fill-opacity="0.5"/>
</g>
<g filter="url(#filter2_f_2042_230)">
<circle cx="1320" cy="4688" r="193" fill="#2BB32A" fill-opacity="0.5"/>
</g>
<g filter="url(#filter3_f_2042_230)">
<circle cx="1330" cy="809" r="193" fill="#2BB32A" fill-opacity="0.5"/>
</g>
<g filter="url(#filter4_f_2042_230)">
<circle cx="1333" cy="2800" r="246" fill="#2BB32A" fill-opacity="0.5"/>
</g>
</g>
<defs>
<filter id="filter0_f_2042_230" x="282" y="-341" width="2092" height="2092" filterUnits="userSpaceOnUse" color-interpolation-filters="sRGB">
<feFlood flood-opacity="0" result="BackgroundImageFix"/>
<feBlend mode="normal" in="SourceGraphic" in2="BackgroundImageFix" result="shape"/>
<feGaussianBlur stdDeviation="400" result="effect1_foregroundBlur_2042_230"/>
</filter>
<filter id="filter1_f_2042_230" x="-853" y="765" width="2092" height="2092" filterUnits="userSpaceOnUse" color-interpolation-filters="sRGB">
<feFlood flood-opacity="0" result="BackgroundImageFix"/>
<feBlend mode="normal" in="SourceGraphic" in2="BackgroundImageFix" result="shape"/>
<feGaussianBlur stdDeviation="400" result="effect1_foregroundBlur_2042_230"/>
</filter>
<filter id="filter2_f_2042_230" x="327" y="3695" width="1986" height="1986" filterUnits="userSpaceOnUse" color-interpolation-filters="sRGB">
<feFlood flood-opacity="0" result="BackgroundImageFix"/>
<feBlend mode="normal" in="SourceGraphic" in2="BackgroundImageFix" result="shape"/>
<feGaussianBlur stdDeviation="400" result="effect1_foregroundBlur_2042_230"/>
</filter>
<filter id="filter3_f_2042_230" x="337" y="-184" width="1986" height="1986" filterUnits="userSpaceOnUse" color-interpolation-filters="sRGB">
<feFlood flood-opacity="0" result="BackgroundImageFix"/>
<feBlend mode="normal" in="SourceGraphic" in2="BackgroundImageFix" result="shape"/>
<feGaussianBlur stdDeviation="400" result="effect1_foregroundBlur_2042_230"/>
</filter>
<filter id="filter4_f_2042_230" x="287" y="1754" width="2092" height="2092" filterUnits="userSpaceOnUse" color-interpolation-filters="sRGB">
<feFlood flood-opacity="0" result="BackgroundImageFix"/>
<feBlend mode="normal" in="SourceGraphic" in2="BackgroundImageFix" result="shape"/>
<feGaussianBlur stdDeviation="400" result="effect1_foregroundBlur_2042_230"/>
</filter>
<clipPath id="clip0_2042_230">
<rect width="1440" height="3735" fill="white"/>
</clipPath>
</defs>
</svg>
