<?xml version="1.0" encoding="UTF-8"?>
<svg id="Layer_1" data-name="Layer 1" xmlns="http://www.w3.org/2000/svg" viewBox="0 0 1920 610.53">
  <defs>
    <style>
      .cls-1 {
        fill: #fff;
      }

      .cls-2 {
        fill: #38d430;
      }
    </style>
  </defs>
  <rect class="cls-2" x="7.01" y="216.58" width="62.07" height="271.74"/>
  <path class="cls-2" d="M38.04,122.4c-10.67,0-19.78,3.69-27.06,10.98-7.28,7.28-10.98,16.2-10.98,26.51s3.74,19.55,11.12,26.92c7.37,7.38,16.43,11.12,26.92,11.12s19.27-3.74,26.65-11.12c7.38-7.37,11.12-16.43,11.12-26.92s-3.75-19.26-11.15-26.55c-7.38-7.26-16.33-10.94-26.61-10.94Z"/>
  <path class="cls-1" d="M324.98,275.85l28.1-59.27h-85.47c-45.01,0-81.28,12.6-107.79,37.46-26.63,24.96-40.13,58.92-40.13,100.93s12.45,74.38,36.99,97.94c24.48,23.5,58.6,35.41,101.4,35.41h58.66l33.43-59.27h-87.04c-26.21,0-46.37-6.57-59.93-19.54-13.48-12.89-20.32-31.99-20.32-56.78s7.13-44.59,21.19-57.38c14.18-12.91,35.5-19.47,63.35-19.5v-6.37s.2,6.37.2,6.37h57.37Z"/>
  <path class="cls-1" d="M519.89,216.58h-18.11l-33.55,33.05V94.92h-62.07v393.39h62.07v-212.47h52.22c18.41,0,31.82,5.19,41,15.87,9.3,10.81,14.02,27.28,14.02,48.96v147.64h62.07v-147.64c0-39.81-10.16-70.75-30.19-91.97-20.13-21.32-49.55-32.13-87.46-32.13Z"/>
  <path class="cls-1" d="M823.46,216.58h-82.75l-33.74,59.27h114.25c14.12,0,19.29,2.93,21.1,4.67,2.17,2.09,4.77,7.17,4.77,19.52v130.7h-59.23c-15,0-26.11-2.98-33.02-8.85-6.7-5.69-9.95-14.38-9.95-26.54,0-10.6,3.24-18.8,9.91-25.08,6.69-6.29,15.54-9.39,27.06-9.46h15.95s30.12-57.88,30.12-57.88h-42.88c-30.32,0-54.61,8.36-72.19,24.85-17.7,16.6-26.67,39.52-26.67,68.13s8.81,52.91,26.18,68.75c17.2,15.71,42.23,23.67,74.37,23.67h121.29v-180.44c0-32.8-6.42-55.67-19.64-69.91-13.16-14.19-35.01-21.39-64.93-21.39Z"/>
  <path class="cls-1" d="M1197.99,253.69c-27.33,24.79-41.19,58.86-41.19,101.28,0,39.75,12.87,72.27,38.26,96.67,25.32,24.34,59.19,36.68,100.69,36.68h21.94l33.43-59.27h-51.44c-26.94,0-47.1-6.28-59.91-18.67-12.75-12.32-19.22-31.72-19.22-57.65s7.23-43.89,22.1-57.04c14.88-13.17,36.99-19.84,65.71-19.84h52.22v208.91c0,34.29-5.57,48.48-10.24,54.33-6.46,8.08-19.26,12.18-38.06,12.18h-85.13l-36.42,59.26h99.68c46.81,0,80.69-9.13,100.69-27.14,20.18-18.19,30.42-49.21,30.42-92.18V216.58h-112.04c-46.83,0-84.34,12.49-111.5,37.11Z"/>
  <path class="cls-1" d="M1557.14,409.33c-13.91-12.98-20.96-32.59-20.96-58.28,0-24.07,6.71-42.81,19.94-55.7,13.28-12.94,32.62-19.5,57.5-19.5h25.6l-57.41,122.21h65.71l87.9-181.48h-102.46c-51.4,0-91.37,11.93-118.79,35.45-27.7,23.77-41.74,58.4-41.74,102.94,0,41.12,13.24,74.02,39.36,97.77,25.94,23.61,61.9,35.58,106.87,35.58h74.33l33.99-59.27h-106.63c-27.91,0-49.18-6.64-63.21-19.72Z"/>
  <path class="cls-1" d="M1145.59,247.46c-7.08-9.52-16.02-17.12-26.56-22.6h0c-10.59-5.5-21.86-8.29-33.48-8.29h-102.23v271.74h62.07v-210.23h36.78c5.45.13,23.8,1.95,31.15,19.74l5.44,13.15,29.15-60.42-2.3-3.09Z"/>
  <g>
    <path class="cls-1" d="M1859.14,92.53c-2.13-2.29-4.84-4.39-8.11-6.3,6.59-.96,11.53-3.27,14.84-6.94,3.31-3.67,4.97-8.32,4.97-13.95,0-4.44-1.09-8.38-3.28-11.82-2.18-3.45-5.09-5.84-8.73-7.19s-9.46-2.02-17.48-2.02h-31.89v75.04h15.15v-31.33h3.07c3.48,0,6.02.28,7.63.84,1.6.56,3.12,1.6,4.56,3.12,1.43,1.52,4.1,5.2,7.99,11.03l10.95,16.33h18.12l-9.16-14.64c-3.62-5.84-6.49-9.9-8.63-12.18ZM1835.82,76.05h-11.21v-19.04h11.82c6.14,0,9.83.09,11.06.26,2.46.41,4.36,1.39,5.71,2.94s2.02,3.59,2.02,6.12c0,2.25-.51,4.13-1.54,5.63-1.02,1.5-2.44,2.56-4.25,3.17-1.81.61-6.35.92-13.62.92Z"/>
    <path class="cls-1" d="M1838.17,163.66c-45.12,0-81.83-36.71-81.83-81.83S1793.05,0,1838.17,0s81.83,36.71,81.83,81.83-36.71,81.83-81.83,81.83ZM1838.17,17.11c-35.69,0-64.72,29.03-64.72,64.72s29.03,64.73,64.72,64.73,64.72-29.04,64.72-64.73-29.03-64.72-64.72-64.72Z"/>
  </g>
</svg>