<svg width="288" height="288" viewBox="0 0 288 288" fill="none" xmlns="http://www.w3.org/2000/svg">
<path d="M57.5601 233.795H50.8428V263.205H57.5601V233.795Z" fill="#38D430"/>
<path d="M54.2001 223.6C53.0454 223.6 52.0588 224 51.2694 224.787C50.4801 225.576 50.0828 226.541 50.0828 227.656C50.0828 228.771 50.4881 229.773 51.2854 230.571C52.0828 231.368 53.0641 231.773 54.2001 231.773C55.3361 231.773 56.2854 231.368 57.0854 230.571C57.8828 229.773 58.2881 228.792 58.2881 227.656C58.2881 226.52 57.8828 225.571 57.0801 224.784C56.2828 223.997 55.3121 223.6 54.2001 223.6Z" fill="#38D430"/>
<path d="M85.2587 240.208L88.3014 233.792H79.0507C74.1787 233.792 70.2534 235.157 67.384 237.848C64.5014 240.549 63.04 244.224 63.04 248.771C63.04 253.317 64.3867 256.821 67.0427 259.371C69.6934 261.915 73.384 263.203 78.0187 263.203H84.368L87.9867 256.787H78.5654C75.728 256.787 73.5467 256.075 72.0774 254.672C70.6187 253.277 69.8774 251.211 69.8774 248.525C69.8774 245.84 70.648 243.699 72.1707 242.315C73.7067 240.917 76.0134 240.208 79.0267 240.205V239.515L79.048 240.203H85.256L85.2587 240.208Z" fill="white"/>
<path d="M106.355 233.795H104.395L100.763 237.373V220.629H94.0454V263.208H100.763V240.211H106.413C108.405 240.211 109.856 240.773 110.851 241.928C111.856 243.099 112.368 244.88 112.368 247.227V263.205H119.085V247.227C119.085 242.917 117.987 239.568 115.819 237.272C113.64 234.965 110.456 233.795 106.352 233.795H106.355Z" fill="white"/>
<path d="M139.211 233.795H130.253L126.6 240.211H138.965C140.493 240.211 141.053 240.528 141.251 240.715C141.485 240.941 141.765 241.491 141.765 242.827V256.973H135.355C133.731 256.973 132.528 256.651 131.781 256.016C131.056 255.4 130.704 254.459 130.704 253.144C130.704 251.997 131.056 251.109 131.776 250.429C132.499 249.749 133.459 249.413 134.707 249.405H136.432L139.691 243.141H135.051C131.768 243.141 129.141 244.045 127.237 245.832C125.323 247.629 124.349 250.109 124.349 253.205C124.349 256.301 125.301 258.931 127.184 260.645C129.045 262.347 131.755 263.208 135.235 263.208H148.363V243.677C148.363 240.128 147.667 237.651 146.237 236.109C144.813 234.573 142.448 233.795 139.208 233.795H139.211Z" fill="white"/>
<path d="M179.749 237.811C176.792 240.493 175.291 244.181 175.291 248.773C175.291 253.075 176.683 256.595 179.432 259.237C182.173 261.872 185.84 263.208 190.331 263.208H192.704L196.323 256.792H190.755C187.837 256.792 185.656 256.112 184.269 254.771C182.888 253.437 182.189 251.339 182.189 248.531C182.189 245.723 182.971 243.781 184.581 242.357C186.192 240.933 188.584 240.211 191.693 240.211H197.344V262.821C197.344 266.533 196.741 268.069 196.235 268.701C195.536 269.576 194.149 270.019 192.115 270.019H182.901L178.96 276.432H189.749C194.816 276.432 198.483 275.443 200.648 273.493C202.832 271.525 203.941 268.168 203.941 263.517V233.792H191.813C186.744 233.792 182.685 235.144 179.747 237.808L179.749 237.811Z" fill="white"/>
<path d="M218.621 254.656C217.115 253.251 216.352 251.128 216.352 248.349C216.352 245.744 217.077 243.715 218.509 242.32C219.947 240.92 222.04 240.211 224.733 240.211H227.504L221.291 253.437H228.403L237.917 233.795H226.829C221.267 233.795 216.941 235.085 213.973 237.632C210.976 240.205 209.456 243.952 209.456 248.773C209.456 253.224 210.888 256.784 213.717 259.355C216.525 261.909 220.416 263.205 225.285 263.205H233.331L237.011 256.789H225.469C222.448 256.789 220.147 256.072 218.627 254.653L218.621 254.656Z" fill="white"/>
<path d="M174.077 237.136C173.312 236.107 172.344 235.283 171.203 234.691C170.056 234.096 168.837 233.795 167.579 233.795H156.515V263.205H163.232V240.451H167.213C167.803 240.464 169.789 240.661 170.584 242.587L171.173 244.011L174.328 237.469L174.077 237.136Z" fill="white"/>
<path d="M194.728 11.5681H93.2721C69.5174 11.5681 50.0828 31.0028 50.0828 54.7575V156.213C50.0828 179.968 69.5174 199.403 93.2721 199.403H194.728C218.483 199.403 237.917 179.968 237.917 156.213V54.7575C237.917 31.0028 218.483 11.5681 194.728 11.5681Z" fill="#35D32F"/>
<path d="M144 34.1975C109.013 34.1975 80.552 62.6615 80.552 97.6455C80.552 112.565 85.8347 127.064 95.4267 138.467C98.456 142.069 103.832 142.533 107.437 139.504C111.04 136.475 111.504 131.096 108.475 127.493C101.464 119.157 97.6027 108.557 97.6027 97.6455C97.6027 72.0588 118.419 51.2428 144.003 51.2428C169.587 51.2428 190.405 72.0588 190.405 97.6455C190.405 108.557 186.544 119.157 179.533 127.493C176.504 131.096 176.968 136.472 180.568 139.504C182.168 140.848 184.115 141.504 186.051 141.504C188.48 141.504 190.893 140.472 192.579 138.467C202.171 127.064 207.453 112.565 207.453 97.6428C207.453 62.6562 178.989 34.1948 144.005 34.1948L144 34.1975Z" fill="white"/>
<path d="M164.651 102.392C165.152 101.507 165.656 100.621 166.16 99.7388C167.723 96.9975 169.336 94.1655 170.88 91.3442C170.883 91.3388 170.885 91.3335 170.888 91.3282C170.896 91.3148 170.904 91.3015 170.912 91.2882C174.856 84.3495 168.723 84.3682 168.723 84.3682H145.659C145.637 84.3708 145.619 84.3682 145.597 84.3682C141.389 84.3682 139.163 88.7148 139.163 88.7148L139.069 88.9068C139.035 88.9735 138.997 89.0402 138.963 89.1068C134.264 98.9335 129.456 108.907 124.805 118.555C123.189 121.907 121.573 125.261 119.957 128.613C119.677 129.195 119.395 129.773 119.112 130.352C118.397 131.811 117.661 133.317 116.987 134.843C116.291 136.419 116.312 137.997 117.045 139.285C117.792 140.595 119.168 141.43 120.92 141.64C121.243 141.677 121.536 141.683 121.797 141.683H121.888L128.357 141.76C131.336 141.795 134.317 141.829 137.296 141.864L134.323 149.309C132.941 152.765 131.56 156.224 130.181 159.683L129.32 161.843C128.021 165.091 126.68 168.451 125.387 171.768C124.683 173.573 125.2 175.395 126.672 176.296C127.171 176.603 127.744 176.763 128.325 176.763C129.352 176.763 130.357 176.285 131.229 175.387C131.387 175.224 131.515 175.061 131.619 174.931L131.672 174.864L132.157 174.259C132.845 173.397 133.536 172.539 134.221 171.677L140.125 164.267C148.72 153.48 157.315 142.693 165.907 131.907C166.248 131.477 166.592 131.048 166.939 130.619C168.123 129.141 169.347 127.616 170.499 126.053C171.501 124.693 171.733 123.125 171.133 121.747C170.533 120.371 169.168 119.435 167.48 119.243C167.032 119.192 166.557 119.168 165.987 119.168C163.605 119.168 161.221 119.165 158.84 119.165H156.029H155.123L160.819 109.128L164.645 102.387L164.651 102.392Z" fill="white"/>
</svg>
